<svg viewBox="0 0 64 64" xmlns="http://www.w3.org/2000/svg" fill="#000000">
  <path fill="#ffffff" d="M26 6h20v48H26z"/>
  <path fill="#dae3ea" d="M16 2h32v4H16z"/>
  <path fill="#ffffff" d="M4 6h10v46H4z"/>
  <path fill="#b2c1c0" d="M26 52h28v8H26z"/>
  <g fill="#b4d7ee">
    <path d="M30 52h4v8h-4z"/>
    <path d="M38 52h4v8h-4z"/>
    <path d="M46 52h4v8h-4z"/>
    <path d="M46 42h10v4H46z"/>
    <path d="M46 32h10v4H46z"/>
    <path d="M46 22h10v4H46z"/>
    <path d="M46 12h10v4H46z"/>
    <path d="M38 42h4v4h-4z"/>
    <path d="M38 32h4v4h-4z"/>
    <path d="M38 22h4v4h-4z"/>
    <path d="M38 12h4v4h-4z"/>
    <path d="M30 42h4v4h-4z"/>
    <path d="M30 32h4v4h-4z"/>
    <path d="M30 22h4v4h-4z"/>
    <path d="M30 12h4v4h-4z"/>
  </g>
  <g fill="#ffffff">
    <path d="M26 46h32v6H26z"/>
    <path d="M26 36h32v6H26z"/>
    <path d="M26 26h32v6H26z"/>
    <path d="M26 16h32v6H26z"/>
    <path d="M26 6h32v6H26z"/>
  </g>
  <g fill="#b4d7ee">
    <path d="M14 8h12v44H14z"/>
    <path d="M4 52h22v10H4z"/>
  </g>
  <path fill="#dae3ea" d="M2 50h24v2H2z"/>
  <g fill="#d6eef0">
    <path d="M14 38h12v2H14z"/>
    <path d="M14 28h12v2H14z"/>
    <path d="M14 18h12v2H14z"/>
    <path d="M14 10h12v2H14z"/>
  </g>
  <path fill="#f5f5f5" d="M14 6h12v2H14z"/>
  <path fill="#b2c1c0" d="M4 52h2v10H4z"/>
  <g fill="#f5f5f5">
    <path d="M10 52h1.3v10H10z"/>
    <path d="M10 52h12v1.1H10z"/>
    <path d="M10 60.9h12V62H10z"/>
    <path d="M15.3 52h1.3v10h-1.3z"/>
    <path d="M20.7 52H22v10h-1.3z"/>
  </g>
  <path fill="#83bf4f" d="M26 58h36v2H26z"/>
  <path fill="#dae3ea" d="M24 60h38v2H24z"/>
</svg>
